# xmcd
#
# Track frame offsets:
#	150
#	14105
#	33232
#	64140
#	80762
#	88235
#	106050
#	119332
#	141677
#	156915
#	169390
#	201995
#	217070
#	227850
#
# Disc length: 3252 seconds
#
# Revision: 2
# Processed by: cddbd v1.4PL0 Copyright (c) Steve Scherf et al.
# Submitted via: audiograbber 1.81.03
#
DISCID=d80cb20e
DTITLE=Various Artist - A Few Degrees Cooler - Vol 1
DYEAR=1994
DGENRE=Blues
TTITLE0=Radio Kings - The Other Side Of Town
TTITLE1=The Toler Bros - Murdered By Love
TTITLE2=Don Mcminn - Painkiller Blues
TTITLE3=Gary B.B. Coleman - I No Something's On Your Mind
TTITLE4=Impala - Open All Night
TTITLE5=Don Nix - Goin' Down The Road To Memphis
TTITLE6=Hamilton Loomis - Love Sick
TTITLE7=Little Dickie Dean - Submarine
TTITLE8=The Coolers - Die Hard Man
TTITLE9=The Radio Kings - It Ain't Easy
TTITLE10=The Toler Bros. - Goin' Down Slow
TTITLE11=Gary B.B. Coleman - My Old Cows Sick
TTITLE12=Impala - Derailed
TTITLE13=Little Dickie Dean - I Need Money
EXTD=
EXTT0=Radio Kings
EXTT1=The Toler Bros.
EXTT2=Don McMinn
EXTT3=Gary b.b. Coleman
EXTT4=Impala
EXTT5=Don Nix
EXTT6=Hamilton Loomis
EXTT7=Little Dickie Dean
EXTT8=The Coolers
EXTT9=The Radio Kings
EXTT10=The Toler Bros.
EXTT11=Gary b.b. Coleman
EXTT12=Impala
EXTT13=Little Dickie Dean
PLAYORDER=
